<svg width="16" height="16" viewBox="0 0 16 16" fill="none" xmlns="http://www.w3.org/2000/svg">
<path fill-rule="evenodd" clip-rule="evenodd" d="M-6.10352e-05 12C-6.10352e-05 14.056 1.94394 16 3.99994 16H11.9999C14.0559 16 15.9999 14.056 15.9999 12V4C15.9999 1.944 14.0559 0 11.9999 0H3.99994C1.94394 0 -6.10352e-05 1.944 -6.10352e-05 4V12ZM1.99994 4C1.99994 3.065 3.06494 2 3.99994 2H11.9999C12.9349 2 13.9999 3.065 13.9999 4V12C13.9999 12.935 12.9349 14 11.9999 14H3.99994C3.04694 14 1.99994 12.953 1.99994 12V4ZM13.105 3.89164C13.105 4.42183 12.6752 4.85164 12.145 4.85164C11.6148 4.85164 11.185 4.42183 11.185 3.89164C11.185 3.36145 11.6148 2.93164 12.145 2.93164C12.6752 2.93164 13.105 3.36145 13.105 3.89164ZM7.99994 12C5.79394 12 3.99994 10.206 3.99994 8C3.99994 5.794 5.79394 4 7.99994 4C10.2059 4 11.9999 5.794 11.9999 8C11.9999 10.206 10.2059 12 7.99994 12ZM7.99994 6C6.89694 6 5.99994 6.897 5.99994 8C5.99994 9.103 6.89694 10 7.99994 10C9.10294 10 9.99994 9.103 9.99994 8C9.99994 6.897 9.10294 6 7.99994 6Z" fill="#ADADAD"/>
</svg>
