<svg width="16" height="12" viewBox="0 0 16 12" fill="none" xmlns="http://www.w3.org/2000/svg">
<path fill-rule="evenodd" clip-rule="evenodd" d="M15.7999 2.8C15.5999 1.5 14.9999 0.6 13.5999 0.4C11.3999 0 7.99994 0 7.99994 0C7.99994 0 4.59994 0 2.39994 0.4C0.999939 0.6 0.299939 1.5 0.199939 2.8C-6.10352e-05 4.1 -6.10352e-05 6 -6.10352e-05 6C-6.10352e-05 6 -6.10352e-05 7.9 0.199939 9.2C0.399939 10.5 0.999939 11.4 2.39994 11.6C4.59994 12 7.99994 12 7.99994 12C7.99994 12 11.3999 12 13.5999 11.6C14.9999 11.3 15.5999 10.5 15.7999 9.2C15.9999 7.9 15.9999 6 15.9999 6C15.9999 6 15.9999 4.1 15.7999 2.8ZM5.99994 9V3L10.9999 6L5.99994 9Z" fill="#ADADAD"/>
</svg>
