<svg width="160" height="56" viewBox="0 0 160 56" fill="none" xmlns="http://www.w3.org/2000/svg">
<rect width="160" height="56" rx="8" fill="#5468E7"/>
<path d="M35.875 34H37.8906V29.7812H40.0703L42.2891 34H44.5859L42.125 29.4766C43.4375 29 44.25 27.7734 44.25 26.2578V26.2422C44.25 24.0625 42.7812 22.7266 40.375 22.7266H35.875V34ZM37.8906 28.1875V24.3594H40.125C41.3906 24.3594 42.1875 25.0781 42.1875 26.2578V26.2734C42.1875 27.4844 41.4375 28.1875 40.1641 28.1875H37.8906ZM49.2734 34.1641C51.4375 34.1641 52.6562 32.8828 52.9141 31.6094L52.9375 31.5234H51.1172L51.1016 31.5781C50.9141 32.1328 50.2812 32.6484 49.3125 32.6484C48.0469 32.6484 47.25 31.7891 47.2188 30.3359H53.0156V29.7109C53.0156 27.2109 51.5469 25.5469 49.1797 25.5469C46.8125 25.5469 45.2891 27.2656 45.2891 29.875V29.8828C45.2891 32.5156 46.7891 34.1641 49.2734 34.1641ZM49.2031 27.0703C50.2344 27.0703 50.9844 27.7266 51.125 29.0391H47.2422C47.3984 27.7656 48.1719 27.0703 49.2031 27.0703ZM57.9297 34.1641C60.0234 34.1641 61.4219 32.8516 61.5703 31.125L61.5781 31.0703H59.7422L59.7266 31.1406C59.5469 32.0078 58.9219 32.5938 57.9375 32.5938C56.7109 32.5938 55.9141 31.5938 55.9141 29.8672V29.8594C55.9141 28.1641 56.7031 27.125 57.9297 27.125C58.9609 27.125 59.5547 27.7734 59.7188 28.5781L59.7344 28.6484H61.5703L61.5625 28.5859C61.4453 26.9297 60.0859 25.5469 57.9062 25.5469C55.4922 25.5469 53.9297 27.2031 53.9297 29.8438V29.8516C53.9297 32.5078 55.4688 34.1641 57.9297 34.1641ZM66.3828 34.1641C68.5469 34.1641 69.7656 32.8828 70.0234 31.6094L70.0469 31.5234H68.2266L68.2109 31.5781C68.0234 32.1328 67.3906 32.6484 66.4219 32.6484C65.1562 32.6484 64.3594 31.7891 64.3281 30.3359H70.125V29.7109C70.125 27.2109 68.6562 25.5469 66.2891 25.5469C63.9219 25.5469 62.3984 27.2656 62.3984 29.875V29.8828C62.3984 32.5156 63.8984 34.1641 66.3828 34.1641ZM66.3125 27.0703C67.3438 27.0703 68.0938 27.7266 68.2344 29.0391H64.3516C64.5078 27.7656 65.2812 27.0703 66.3125 27.0703ZM71.3828 34H73.3281V29.1953C73.3281 28 74.0391 27.1875 75.1562 27.1875C76.2656 27.1875 76.8125 27.8516 76.8125 29.0312V34H78.7578V28.6406C78.7578 26.7188 77.7188 25.5469 75.8984 25.5469C74.6406 25.5469 73.7969 26.125 73.3672 27.0156H73.3281V25.7188H71.3828V34ZM83.3984 34.1641C83.7891 34.1641 84.1328 34.125 84.3594 34.0938V32.6328C84.2266 32.6406 84.0781 32.6641 83.8906 32.6641C83.1797 32.6641 82.8203 32.4062 82.8203 31.5938V27.2188H84.3594V25.7188H82.8203V23.6172H80.8438V25.7188H79.6719V27.2188H80.8438V31.7578C80.8438 33.4609 81.6641 34.1641 83.3984 34.1641ZM91.4609 34H93.4062L95.6797 25.9141H95.7266L98 34H99.9453L102.969 22.7266H100.875L98.9141 31.2344H98.875L96.6172 22.7266H94.7891L92.5312 31.2344H92.4922L90.5312 22.7266H88.4375L91.4609 34ZM106.859 34.1641C109.289 34.1641 110.867 32.5469 110.867 29.8594V29.8438C110.867 27.1719 109.266 25.5469 106.852 25.5469C104.445 25.5469 102.852 27.1875 102.852 29.8438V29.8594C102.852 32.5391 104.422 34.1641 106.859 34.1641ZM106.867 32.5938C105.625 32.5938 104.836 31.6016 104.836 29.8594V29.8438C104.836 28.125 105.641 27.125 106.852 27.125C108.086 27.125 108.883 28.1172 108.883 29.8438V29.8594C108.883 31.5938 108.094 32.5938 106.867 32.5938ZM112.117 34H114.062V29.1953C114.062 27.9688 114.727 27.2734 115.828 27.2734C116.156 27.2734 116.453 27.3203 116.617 27.3828V25.625C116.469 25.5859 116.242 25.5469 116 25.5469C115.047 25.5469 114.359 26.1484 114.102 27.1484H114.062V25.7188H112.117V34ZM117.703 34H119.648V31.125L120.305 30.4375L122.922 34H125.164L121.75 29.2812L125.031 25.7188H122.781L119.688 29.1562H119.648V22.7266H117.703V34Z" fill="white"/>
</svg>
