<svg width="199" height="561" viewBox="0 0 199 561" fill="none" xmlns="http://www.w3.org/2000/svg">
<path d="M47.6772 -21.9834C26.1369 -17.3365 8.94444 0.162487 2.53287 20.9421C-4.10641 42.4689 2.60403 65.0631 19.1773 80.1496C35.1814 94.7025 59.0273 101.57 79.735 93.6137C99.105 86.17 115.934 64.9421 106.584 43.7213C98.6851 25.8025 75.2733 15.3273 56.985 23.1481C38.6967 30.9689 29.8087 52.8586 33.1533 71.7595C37.3802 95.6062 60.5501 108.764 81.7346 115.432C107.395 123.559 137.29 124.755 158.311 143.456C174.884 158.201 183.01 181.173 181.36 203.112C180.604 214.106 177.119 224.739 171.219 234.047C164.694 244.145 153.557 252.791 141.275 253.972C127.612 255.289 117.792 244.806 116.803 231.648C115.728 217.181 124.495 204.535 132.828 193.555C148.747 172.59 169.12 151.718 195.563 145.257C218.982 139.564 247.148 146.011 259.565 168.306C273.641 193.583 263.621 223.749 248.699 246.052C240.601 258.15 230.973 269.187 221.494 280.21C211.859 291.418 202.138 302.569 193.03 314.233C175.795 336.35 160.759 360.624 154.276 388.193C148.192 414.053 150.006 441.864 164.359 464.771C177.695 486.12 199.228 501.185 222.127 510.842C250.734 522.94 281.831 527.693 312.146 533.486L409.38 552.074L456.004 560.983C457.007 561.176 457.427 559.638 456.431 559.439L360.364 541.072C329.11 535.101 297.636 529.814 266.596 522.812C238.964 516.571 211.247 507.483 188.881 489.5C178.976 481.537 170.266 471.98 163.939 460.907C157.148 448.811 153.29 435.291 152.675 421.433C149.579 361.151 194.225 314.959 230.325 272.339C247.518 252.029 265.194 229.414 267.556 201.888C268.588 189.99 266.702 177.55 260.732 167.082C255.232 157.636 246.73 150.302 236.58 146.246C214.677 137.244 190.006 142.133 170.522 154.536C159.634 161.489 150.148 170.441 141.68 180.119C133.034 190.011 123.99 200.878 118.738 213.011C114.269 223.344 113.252 236.075 119.841 245.796C125.733 254.478 136.165 257.224 146.035 254.741C167.533 249.332 179.951 227.564 182.576 206.884C185.174 186.375 179.175 164.634 165.768 148.808C148.69 128.676 122.033 123.844 97.6604 118.051C74.5759 112.571 46.2326 103.327 36.8181 78.9968C29.2964 59.5622 37.366 33.8083 56.9352 24.913C76.7036 15.9108 103.645 29.8944 107.26 51.4496C111.601 77.2818 83.3785 95.6418 60.5715 95.3785C37.7645 95.1152 15.4628 80.4343 6.06244 59.6405C-3.70791 37.9927 3.15197 12.374 19.3268 -4.23539C27.1073 -12.3464 37.1118 -17.9764 48.0828 -20.4178C49.1004 -20.6384 48.6592 -22.1756 47.6772 -21.9834Z" fill="url(#paint0_linear_3_778)"/>
<defs>
<linearGradient id="paint0_linear_3_778" x1="395.246" y1="561" x2="395.246" y2="135.561" gradientUnits="userSpaceOnUse">
<stop stop-color="#323259" stop-opacity="0.01"/>
<stop offset="1" stop-color="#323259"/>
</linearGradient>
</defs>
</svg>
