<svg width="375" height="316" viewBox="0 0 375 316" fill="none" xmlns="http://www.w3.org/2000/svg">
<g style="mix-blend-mode:multiply" filter="url(#filter0_f_3_357)">
<rect x="32" y="93" width="294" height="190.578" rx="28.4444" fill="#EDEDED"/>
</g>
<rect x="32" y="93" width="311" height="175" rx="24" fill="white"/>
<g clip-path="url(#clip0_3_357)">
<path d="M76.9805 163.511H80.4375L83.5547 152.179H83.625L86.7305 163.511H90.1875L94.6758 146.601H91.0078L88.3242 158.718H88.2539L85.1367 146.601H82.0312L78.9141 158.718H78.8438L76.1719 146.601H72.5039L76.9805 163.511ZM100.405 163.769C103.991 163.769 105.726 161.648 106.112 159.796L106.148 159.667H103.007L102.984 159.738C102.737 160.441 101.882 161.214 100.476 161.214C98.7297 161.214 97.6398 160.042 97.6047 158.039H106.253V156.984C106.253 153.187 103.945 150.691 100.265 150.691C96.5852 150.691 94.2297 153.246 94.2297 157.242V157.253C94.2297 161.273 96.5617 163.769 100.405 163.769ZM100.323 153.246C101.741 153.246 102.761 154.148 102.972 155.882H97.6398C97.8625 154.183 98.9172 153.246 100.323 153.246ZM115.264 163.769C118.428 163.769 120.385 161.308 120.385 157.23V157.218C120.385 153.128 118.428 150.691 115.276 150.691C113.483 150.691 112.088 151.605 111.397 153.128H111.327V146.601H107.905V163.511H111.327V161.367H111.397C112.077 162.855 113.459 163.769 115.264 163.769ZM114.127 160.933C112.463 160.933 111.327 159.503 111.327 157.23V157.218C111.327 154.957 112.475 153.527 114.127 153.527C115.827 153.527 116.905 154.921 116.905 157.218V157.23C116.905 159.515 115.827 160.933 114.127 160.933ZM126.794 163.511H133.251C138.325 163.511 141.313 160.359 141.313 154.992V154.968C141.313 149.613 138.313 146.601 133.251 146.601H126.794V163.511ZM130.333 160.582V149.519H132.829C135.934 149.519 137.704 151.453 137.704 154.98V155.003C137.704 158.66 135.993 160.582 132.829 160.582H130.333ZM148.824 163.769C152.41 163.769 154.145 161.648 154.531 159.796L154.566 159.667H151.426L151.402 159.738C151.156 160.441 150.301 161.214 148.895 161.214C147.148 161.214 146.059 160.042 146.023 158.039H154.672V156.984C154.672 153.187 152.363 150.691 148.684 150.691C145.004 150.691 142.648 153.246 142.648 157.242V157.253C142.648 161.273 144.98 163.769 148.824 163.769ZM148.742 153.246C150.16 153.246 151.18 154.148 151.391 155.882H146.059C146.281 154.183 147.336 153.246 148.742 153.246ZM161.409 163.769C164.644 163.769 166.905 162.152 166.905 159.691V159.679C166.905 157.828 165.827 156.796 163.202 156.246L161.07 155.789C159.804 155.519 159.37 155.097 159.37 154.453V154.441C159.37 153.632 160.109 153.105 161.292 153.105C162.558 153.105 163.296 153.785 163.413 154.687L163.425 154.781H166.577V154.664C166.495 152.46 164.632 150.691 161.292 150.691C158.093 150.691 156.03 152.238 156.03 154.628V154.64C156.03 156.515 157.261 157.734 159.698 158.25L161.831 158.695C163.062 158.964 163.484 159.351 163.484 160.019V160.031C163.484 160.839 162.698 161.343 161.409 161.343C160.038 161.343 159.3 160.769 159.077 159.785L159.054 159.679H155.714L155.726 159.785C155.995 162.164 157.929 163.769 161.409 163.769ZM170.174 149.332C171.205 149.332 172.002 148.523 172.002 147.55C172.002 146.578 171.205 145.769 170.174 145.769C169.143 145.769 168.346 146.578 168.346 147.55C168.346 148.523 169.143 149.332 170.174 149.332ZM168.463 163.511H171.885V150.949H168.463V163.511ZM179.853 167.871C183.627 167.871 185.982 165.96 185.982 163.16V150.949H182.56V153.093H182.49C181.81 151.628 180.439 150.691 178.67 150.691C175.494 150.691 173.525 153.07 173.525 157.078V157.089C173.525 160.992 175.47 163.335 178.611 163.335C180.427 163.335 181.834 162.503 182.49 161.191H182.56V163.113C182.56 164.519 181.623 165.433 179.853 165.433C178.423 165.433 177.509 164.894 177.24 164.273L177.205 164.191H173.877L173.888 164.296C174.216 166.312 176.396 167.871 179.853 167.871ZM179.795 160.828C178.084 160.828 177.005 159.433 177.005 157.171V157.16C177.005 154.91 178.095 153.527 179.795 153.527C181.459 153.527 182.572 154.921 182.572 157.16V157.171C182.572 159.421 181.47 160.828 179.795 160.828ZM188.032 163.511H191.454V156.292C191.454 154.652 192.427 153.527 193.962 153.527C195.497 153.527 196.27 154.464 196.27 156.105V163.511H199.692V155.402C199.692 152.46 198.122 150.691 195.356 150.691C193.458 150.691 192.169 151.57 191.524 153.011H191.454V150.949H188.032V163.511ZM207.379 163.769C210.965 163.769 212.699 161.648 213.086 159.796L213.121 159.667H209.98L209.957 159.738C209.711 160.441 208.855 161.214 207.449 161.214C205.703 161.214 204.613 160.042 204.578 158.039H213.227V156.984C213.227 153.187 210.918 150.691 207.238 150.691C203.559 150.691 201.203 153.246 201.203 157.242V157.253C201.203 161.273 203.535 163.769 207.379 163.769ZM207.297 153.246C208.715 153.246 209.734 154.148 209.945 155.882H204.613C204.836 154.183 205.891 153.246 207.297 153.246ZM214.796 163.511H218.218V156.433C218.218 154.664 219.202 153.644 220.89 153.644C221.382 153.644 221.851 153.714 222.132 153.832V150.82C221.874 150.75 221.523 150.691 221.148 150.691C219.659 150.691 218.593 151.57 218.23 153.093H218.159V150.949H214.796V163.511Z" fill="#232340"/>
<path d="M72.9141 194.511H80.3594V193.261H74.8438V193.23L77.5234 190.48C79.5938 188.363 80.1641 187.433 80.1641 186.199V186.183C80.1641 184.417 78.6719 183.05 76.6328 183.05C74.5312 183.05 72.8438 184.496 72.8438 186.449V186.496H74.2031V186.457C74.2031 185.246 75.25 184.277 76.6562 184.277C77.8828 184.277 78.75 185.105 78.7578 186.253V186.269C78.7578 187.207 78.4062 187.816 76.8828 189.402L72.9141 193.542V194.511ZM86.0078 197.246C87.4766 197.246 88.1875 196.574 88.7656 195.019L91.9375 186.386H90.5078L88.2578 193.152H88.2266L85.9844 186.386H84.5312L87.5469 194.519L87.3828 194.98C87.0547 195.902 86.5781 196.121 85.7188 196.121C85.5547 196.121 85.3984 196.097 85.2812 196.074V197.183C85.4531 197.214 85.7422 197.246 86.0078 197.246ZM96.0391 194.667C97.8125 194.667 99.1406 193.605 99.4062 192.261L99.4219 192.183H98.0859L98.0625 192.253C97.8281 192.949 97.1016 193.464 96.0703 193.464C94.625 193.464 93.7031 192.488 93.6719 190.816H99.5234V190.316C99.5234 187.878 98.1719 186.23 95.9531 186.23C93.7344 186.23 92.2969 187.957 92.2969 190.472V190.48C92.2969 193.035 93.7031 194.667 96.0391 194.667ZM95.9453 187.433C97.1328 187.433 98.0078 188.175 98.1406 189.753H93.6953C93.8438 188.238 94.7656 187.433 95.9453 187.433ZM103.273 194.667C104.359 194.667 105.336 194.082 105.812 193.191H105.844V194.511H107.203V188.894C107.203 187.269 106 186.23 104.078 186.23C102.164 186.23 101 187.308 100.883 188.644L100.875 188.73H102.188L102.203 188.66C102.359 187.933 103.016 187.433 104.062 187.433C105.195 187.433 105.844 188.035 105.844 189.027V189.707L103.516 189.839C101.648 189.949 100.57 190.816 100.57 192.199V192.214C100.57 193.691 101.656 194.667 103.273 194.667ZM101.961 192.214V192.199C101.961 191.441 102.586 190.957 103.672 190.894L105.844 190.761V191.425C105.844 192.605 104.859 193.488 103.578 193.488C102.602 193.488 101.961 192.996 101.961 192.214ZM108.93 194.511H110.289V189.433C110.289 188.285 110.977 187.527 112.031 187.527C112.359 187.527 112.648 187.566 112.758 187.605V186.285C112.648 186.269 112.445 186.23 112.211 186.23C111.258 186.23 110.508 186.8 110.242 187.699H110.211V186.386H108.93V194.511ZM116.75 194.667C118.562 194.667 119.906 193.667 119.906 192.246V192.238C119.906 191.082 119.312 190.433 117.672 190.035L116.383 189.722C115.484 189.503 115.117 189.121 115.117 188.566V188.558C115.117 187.839 115.727 187.363 116.711 187.363C117.719 187.363 118.32 187.886 118.43 188.675L118.438 188.73H119.734L119.727 188.628C119.625 187.269 118.492 186.23 116.711 186.23C114.953 186.23 113.727 187.222 113.727 188.621V188.628C113.727 189.8 114.469 190.511 116 190.878L117.289 191.191C118.211 191.417 118.516 191.746 118.516 192.332V192.339C118.516 193.074 117.859 193.535 116.758 193.535C115.648 193.535 115.047 193.058 114.883 192.246L114.867 192.167H113.508L113.516 192.238C113.68 193.691 114.836 194.667 116.75 194.667ZM127.945 194.667C129.719 194.667 131.047 193.605 131.312 192.261L131.328 192.183H129.992L129.969 192.253C129.734 192.949 129.008 193.464 127.977 193.464C126.531 193.464 125.609 192.488 125.578 190.816H131.43V190.316C131.43 187.878 130.078 186.23 127.859 186.23C125.641 186.23 124.203 187.957 124.203 190.472V190.48C124.203 193.035 125.609 194.667 127.945 194.667ZM127.852 187.433C129.039 187.433 129.914 188.175 130.047 189.753H125.602C125.75 188.238 126.672 187.433 127.852 187.433ZM132.016 194.511H133.523L135.484 191.417H135.516L137.461 194.511H138.969L136.266 190.394L139.008 186.386H137.492L135.562 189.433H135.531L133.578 186.386H132.062L134.781 190.449L132.016 194.511ZM140.148 197.246H141.508V193.152H141.539C142.047 194.089 142.992 194.667 144.141 194.667C146.18 194.667 147.57 193.019 147.57 190.457V190.449C147.57 187.886 146.195 186.23 144.117 186.23C142.953 186.23 142.047 186.816 141.539 187.761H141.508V186.386H140.148V197.246ZM143.852 193.464C142.484 193.464 141.5 192.269 141.5 190.457V190.449C141.5 188.628 142.477 187.433 143.852 187.433C145.289 187.433 146.18 188.582 146.18 190.449V190.457C146.18 192.308 145.289 193.464 143.852 193.464ZM152.289 194.667C154.062 194.667 155.391 193.605 155.656 192.261L155.672 192.183H154.336L154.312 192.253C154.078 192.949 153.352 193.464 152.32 193.464C150.875 193.464 149.953 192.488 149.922 190.816H155.773V190.316C155.773 187.878 154.422 186.23 152.203 186.23C149.984 186.23 148.547 187.957 148.547 190.472V190.48C148.547 193.035 149.953 194.667 152.289 194.667ZM152.195 187.433C153.383 187.433 154.258 188.175 154.391 189.753H149.945C150.094 188.238 151.016 187.433 152.195 187.433ZM157.148 194.511H158.508V189.433C158.508 188.285 159.195 187.527 160.25 187.527C160.578 187.527 160.867 187.566 160.977 187.605V186.285C160.867 186.269 160.664 186.23 160.43 186.23C159.477 186.23 158.727 186.8 158.461 187.699H158.43V186.386H157.148V194.511ZM162.852 185.011C163.328 185.011 163.703 184.628 163.703 184.16C163.703 183.683 163.328 183.308 162.852 183.308C162.383 183.308 162 183.683 162 184.16C162 184.628 162.383 185.011 162.852 185.011ZM162.172 194.511H163.531V186.386H162.172V194.511ZM168.727 194.667C170.5 194.667 171.828 193.605 172.094 192.261L172.109 192.183H170.773L170.75 192.253C170.516 192.949 169.789 193.464 168.758 193.464C167.312 193.464 166.391 192.488 166.359 190.816H172.211V190.316C172.211 187.878 170.859 186.23 168.641 186.23C166.422 186.23 164.984 187.957 164.984 190.472V190.48C164.984 193.035 166.391 194.667 168.727 194.667ZM168.633 187.433C169.82 187.433 170.695 188.175 170.828 189.753H166.383C166.531 188.238 167.453 187.433 168.633 187.433ZM173.586 194.511H174.945V189.73C174.945 188.347 175.781 187.433 177.062 187.433C178.312 187.433 178.93 188.16 178.93 189.48V194.511H180.289V189.238C180.289 187.386 179.258 186.23 177.477 186.23C176.242 186.23 175.414 186.785 174.977 187.542H174.945V186.386H173.586V194.511ZM185.391 194.667C187.227 194.667 188.562 193.472 188.781 191.925L188.789 191.871H187.453L187.438 191.933C187.211 192.839 186.5 193.464 185.391 193.464C183.984 193.464 183.016 192.347 183.016 190.457V190.449C183.016 188.605 183.961 187.433 185.375 187.433C186.57 187.433 187.227 188.152 187.43 188.964L187.445 189.027H188.773L188.766 188.964C188.594 187.574 187.398 186.23 185.375 186.23C183.117 186.23 181.625 187.871 181.625 190.433V190.441C181.625 193.027 183.086 194.667 185.391 194.667ZM193.383 194.667C195.156 194.667 196.484 193.605 196.75 192.261L196.766 192.183H195.43L195.406 192.253C195.172 192.949 194.445 193.464 193.414 193.464C191.969 193.464 191.047 192.488 191.016 190.816H196.867V190.316C196.867 187.878 195.516 186.23 193.297 186.23C191.078 186.23 189.641 187.957 189.641 190.472V190.48C189.641 193.035 191.047 194.667 193.383 194.667ZM193.289 187.433C194.477 187.433 195.352 188.175 195.484 189.753H191.039C191.188 188.238 192.109 187.433 193.289 187.433Z" fill="#606060"/>
</g>
<g clip-path="url(#clip1_3_357)">
<circle cx="251" cy="154.778" r="12" fill="url(#paint0_linear_3_357)"/>
<path d="M250.63 160.024C252.77 160.024 254.294 158.561 254.294 156.558V156.544C254.294 154.671 252.968 153.291 251.074 153.291C249.721 153.291 248.859 153.981 248.497 154.76H248.36C248.36 154.685 248.367 154.61 248.367 154.535C248.442 152.648 249.105 151.117 250.671 151.117C251.539 151.117 252.147 151.568 252.407 152.258L252.435 152.327H254.164L254.15 152.251C253.836 150.741 252.482 149.667 250.671 149.667C248.189 149.667 246.692 151.636 246.692 154.958V154.972C246.692 158.527 248.524 160.024 250.63 160.024ZM248.668 156.579V156.565C248.668 155.451 249.522 154.644 250.637 154.644C251.758 154.644 252.571 155.464 252.571 156.606V156.62C252.571 157.72 251.71 158.588 250.616 158.588C249.522 158.588 248.668 157.707 248.668 156.579Z" fill="white"/>
</g>
<path d="M72 218.156H86.2222" stroke="#232340" stroke-width="2" stroke-linecap="round" stroke-linejoin="round"/>
<path d="M81.2444 213.178L86.2222 218.156L81.2444 223.133" stroke="#232340" stroke-width="2" stroke-linecap="round" stroke-linejoin="round"/>
<defs>
<filter id="filter0_f_3_357" x="-60.784" y="0.215981" width="479.568" height="376.146" filterUnits="userSpaceOnUse" color-interpolation-filters="sRGB">
<feFlood flood-opacity="0" result="BackgroundImageFix"/>
<feBlend mode="normal" in="SourceGraphic" in2="BackgroundImageFix" result="shape"/>
<feGaussianBlur stdDeviation="46.392" result="effect1_foregroundBlur_3_357"/>
</filter>
<linearGradient id="paint0_linear_3_357" x1="239" y1="142.778" x2="239" y2="166.778" gradientUnits="userSpaceOnUse">
<stop stop-color="#3A8FFF"/>
<stop offset="1" stop-color="#0837AE"/>
</linearGradient>
<clipPath id="clip0_3_357">
<rect width="151" height="64" fill="white" transform="translate(72 138.511)"/>
</clipPath>
<clipPath id="clip1_3_357">
<rect width="24" height="24" fill="white" transform="translate(239 142.778)"/>
</clipPath>
</defs>
</svg>
