<svg width="375" height="377" viewBox="0 0 375 377" fill="none" xmlns="http://www.w3.org/2000/svg">
<g style="mix-blend-mode:multiply" filter="url(#filter0_f_3_395)">
<rect x="32" y="93" width="294" height="190.578" rx="28.4444" fill="#EDEDED"/>
</g>
<rect x="32" y="93" width="311" height="175" rx="24" fill="white"/>
<g clip-path="url(#clip0_3_395)">
<circle cx="286" cy="156" r="12" fill="url(#paint0_linear_3_395)"/>
<path d="M282.63 161H289.479V159.537H285.016V159.394L286.991 157.479C288.789 155.75 289.329 154.861 289.329 153.74V153.72C289.329 152.059 287.948 150.89 286.027 150.89C283.97 150.89 282.534 152.175 282.534 154.014L282.541 154.034L284.182 154.041L284.188 154.014C284.188 152.995 284.893 152.305 285.938 152.305C286.964 152.305 287.586 152.961 287.586 153.87V153.891C287.586 154.649 287.21 155.148 285.87 156.502L282.63 159.811V161Z" fill="white"/>
</g>
<g clip-path="url(#clip1_3_395)">
<path d="M81.0234 163.804C85.7344 163.804 88.5234 161.015 88.5234 156.41V154.464H81.3984V157.101H85.0781L85.0664 157.347C84.9727 159.433 83.3906 160.804 81.082 160.804C78.2695 160.804 76.4883 158.636 76.4883 154.968V154.957C76.4883 151.371 78.1641 149.308 80.9531 149.308C82.8633 149.308 84.2109 150.257 84.7734 151.898L84.8203 152.015H88.3711L88.3359 151.851C87.7734 148.675 85.0078 146.308 80.9414 146.308C75.9844 146.308 72.8789 149.578 72.8789 154.992V155.003C72.8789 160.511 75.9727 163.804 81.0234 163.804ZM90.3742 163.511H93.7961V156.433C93.7961 154.664 94.7805 153.644 96.468 153.644C96.9602 153.644 97.4289 153.714 97.7102 153.832V150.82C97.4523 150.75 97.1008 150.691 96.7258 150.691C95.2375 150.691 94.1711 151.57 93.8078 153.093H93.7375V150.949H90.3742V163.511ZM102.35 163.71C104.002 163.71 105.338 162.925 106.053 161.636H106.123V163.511H109.545V154.898C109.545 152.367 107.448 150.691 104.202 150.691C100.885 150.691 98.893 152.355 98.7055 154.675L98.6938 154.816H101.823L101.846 154.71C102.01 153.902 102.784 153.304 104.061 153.304C105.397 153.304 106.123 153.996 106.123 155.109V155.882L103.018 156.07C99.9008 156.269 98.1313 157.605 98.1313 159.89V159.914C98.1313 162.128 99.8305 163.71 102.35 163.71ZM101.518 159.738V159.714C101.518 158.824 102.209 158.261 103.534 158.179L106.123 158.015V158.917C106.123 160.23 104.998 161.214 103.463 161.214C102.28 161.214 101.518 160.664 101.518 159.738ZM111.56 167.613H114.982V161.367H115.052C115.732 162.855 117.15 163.769 118.943 163.769C122.084 163.769 124.029 161.308 124.029 157.23V157.218C124.029 153.128 122.084 150.691 118.896 150.691C117.115 150.691 115.744 151.617 115.064 153.14H114.982V150.949H111.56V167.613ZM117.771 160.933C116.107 160.933 114.97 159.503 114.97 157.242V157.23C114.97 154.957 116.107 153.527 117.771 153.527C119.47 153.527 120.548 154.921 120.548 157.218V157.23C120.548 159.515 119.47 160.933 117.771 160.933ZM125.692 163.511H129.114V156.316C129.114 154.675 130.087 153.527 131.598 153.527C133.157 153.527 134.024 154.57 134.024 156.328V163.511H137.446V155.625C137.446 152.589 135.759 150.691 133.04 150.691C131.153 150.691 129.829 151.558 129.184 153.117H129.114V146.601H125.692V163.511ZM141.23 149.332C142.262 149.332 143.059 148.523 143.059 147.55C143.059 146.578 142.262 145.769 141.23 145.769C140.199 145.769 139.402 146.578 139.402 147.55C139.402 148.523 140.199 149.332 141.23 149.332ZM139.52 163.511H142.941V150.949H139.52V163.511ZM150.78 163.769C154.132 163.769 156.3 161.683 156.464 158.941V158.871H153.277L153.265 158.976C153.03 160.242 152.175 161.085 150.804 161.085C149.116 161.085 148.062 159.691 148.062 157.23V157.218C148.062 154.816 149.116 153.375 150.792 153.375C152.21 153.375 153.042 154.289 153.253 155.484L153.277 155.589H156.452V155.507C156.323 152.789 154.155 150.691 150.745 150.691C146.984 150.691 144.581 153.187 144.581 157.207V157.218C144.581 161.273 146.948 163.769 150.78 163.769ZM162.767 163.511H169.224C174.298 163.511 177.287 160.359 177.287 154.992V154.968C177.287 149.613 174.287 146.601 169.224 146.601H162.767V163.511ZM166.306 160.582V149.519H168.802C171.908 149.519 173.677 151.453 173.677 154.98V155.003C173.677 158.66 171.966 160.582 168.802 160.582H166.306ZM184.798 163.769C188.384 163.769 190.118 161.648 190.505 159.796L190.54 159.667H187.399L187.376 159.738C187.13 160.441 186.274 161.214 184.868 161.214C183.122 161.214 182.032 160.042 181.997 158.039H190.645V156.984C190.645 153.187 188.337 150.691 184.657 150.691C180.977 150.691 178.622 153.246 178.622 157.242V157.253C178.622 161.273 180.954 163.769 184.798 163.769ZM184.716 153.246C186.134 153.246 187.153 154.148 187.364 155.882H182.032C182.255 154.183 183.309 153.246 184.716 153.246ZM197.383 163.769C200.617 163.769 202.879 162.152 202.879 159.691V159.679C202.879 157.828 201.801 156.796 199.176 156.246L197.043 155.789C195.777 155.519 195.344 155.097 195.344 154.453V154.441C195.344 153.632 196.082 153.105 197.266 153.105C198.531 153.105 199.27 153.785 199.387 154.687L199.398 154.781H202.551V154.664C202.469 152.46 200.605 150.691 197.266 150.691C194.066 150.691 192.004 152.238 192.004 154.628V154.64C192.004 156.515 193.234 157.734 195.672 158.25L197.805 158.695C199.035 158.964 199.457 159.351 199.457 160.019V160.031C199.457 160.839 198.672 161.343 197.383 161.343C196.012 161.343 195.273 160.769 195.051 159.785L195.027 159.679H191.688L191.699 159.785C191.969 162.164 193.902 163.769 197.383 163.769ZM206.148 149.332C207.179 149.332 207.976 148.523 207.976 147.55C207.976 146.578 207.179 145.769 206.148 145.769C205.116 145.769 204.32 146.578 204.32 147.55C204.32 148.523 205.116 149.332 206.148 149.332ZM204.437 163.511H207.859V150.949H204.437V163.511ZM215.827 167.871C219.6 167.871 221.955 165.96 221.955 163.16V150.949H218.534V153.093H218.463C217.784 151.628 216.413 150.691 214.643 150.691C211.467 150.691 209.498 153.07 209.498 157.078V157.089C209.498 160.992 211.444 163.335 214.584 163.335C216.401 163.335 217.807 162.503 218.463 161.191H218.534V163.113C218.534 164.519 217.596 165.433 215.827 165.433C214.397 165.433 213.483 164.894 213.213 164.273L213.178 164.191H209.85L209.862 164.296C210.19 166.312 212.37 167.871 215.827 167.871ZM215.768 160.828C214.057 160.828 212.979 159.433 212.979 157.171V157.16C212.979 154.91 214.069 153.527 215.768 153.527C217.432 153.527 218.545 154.921 218.545 157.16V157.171C218.545 159.421 217.444 160.828 215.768 160.828ZM224.005 163.511H227.427V156.292C227.427 154.652 228.4 153.527 229.935 153.527C231.47 153.527 232.244 154.464 232.244 156.105V163.511H235.666V155.402C235.666 152.46 234.095 150.691 231.33 150.691C229.431 150.691 228.142 151.57 227.498 153.011H227.427V150.949H224.005V163.511ZM243.352 163.769C246.938 163.769 248.673 161.648 249.059 159.796L249.095 159.667H245.954L245.93 159.738C245.684 160.441 244.829 161.214 243.423 161.214C241.677 161.214 240.587 160.042 240.552 158.039H249.2V156.984C249.2 153.187 246.891 150.691 243.212 150.691C239.532 150.691 237.177 153.246 237.177 157.242V157.253C237.177 161.273 239.509 163.769 243.352 163.769ZM243.27 153.246C244.688 153.246 245.708 154.148 245.919 155.882H240.587C240.809 154.183 241.864 153.246 243.27 153.246ZM250.77 163.511H254.191V156.433C254.191 154.664 255.176 153.644 256.863 153.644C257.355 153.644 257.824 153.714 258.105 153.832V150.82C257.848 150.75 257.496 150.691 257.121 150.691C255.633 150.691 254.566 151.57 254.203 153.093H254.133V150.949H250.77V163.511Z" fill="#232340"/>
<path d="M72.9141 194.511H80.3594V193.261H74.8438V193.23L77.5234 190.48C79.5938 188.363 80.1641 187.433 80.1641 186.199V186.183C80.1641 184.417 78.6719 183.05 76.6328 183.05C74.5312 183.05 72.8438 184.496 72.8438 186.449V186.496H74.2031V186.457C74.2031 185.246 75.25 184.277 76.6562 184.277C77.8828 184.277 78.75 185.105 78.7578 186.253V186.269C78.7578 187.207 78.4062 187.816 76.8828 189.402L72.9141 193.542V194.511ZM86.0078 197.246C87.4766 197.246 88.1875 196.574 88.7656 195.019L91.9375 186.386H90.5078L88.2578 193.152H88.2266L85.9844 186.386H84.5312L87.5469 194.519L87.3828 194.98C87.0547 195.902 86.5781 196.121 85.7188 196.121C85.5547 196.121 85.3984 196.097 85.2812 196.074V197.183C85.4531 197.214 85.7422 197.246 86.0078 197.246ZM96.0391 194.667C97.8125 194.667 99.1406 193.605 99.4062 192.261L99.4219 192.183H98.0859L98.0625 192.253C97.8281 192.949 97.1016 193.464 96.0703 193.464C94.625 193.464 93.7031 192.488 93.6719 190.816H99.5234V190.316C99.5234 187.878 98.1719 186.23 95.9531 186.23C93.7344 186.23 92.2969 187.957 92.2969 190.472V190.48C92.2969 193.035 93.7031 194.667 96.0391 194.667ZM95.9453 187.433C97.1328 187.433 98.0078 188.175 98.1406 189.753H93.6953C93.8438 188.238 94.7656 187.433 95.9453 187.433ZM103.273 194.667C104.359 194.667 105.336 194.082 105.812 193.191H105.844V194.511H107.203V188.894C107.203 187.269 106 186.23 104.078 186.23C102.164 186.23 101 187.308 100.883 188.644L100.875 188.73H102.188L102.203 188.66C102.359 187.933 103.016 187.433 104.062 187.433C105.195 187.433 105.844 188.035 105.844 189.027V189.707L103.516 189.839C101.648 189.949 100.57 190.816 100.57 192.199V192.214C100.57 193.691 101.656 194.667 103.273 194.667ZM101.961 192.214V192.199C101.961 191.441 102.586 190.957 103.672 190.894L105.844 190.761V191.425C105.844 192.605 104.859 193.488 103.578 193.488C102.602 193.488 101.961 192.996 101.961 192.214ZM108.93 194.511H110.289V189.433C110.289 188.285 110.977 187.527 112.031 187.527C112.359 187.527 112.648 187.566 112.758 187.605V186.285C112.648 186.269 112.445 186.23 112.211 186.23C111.258 186.23 110.508 186.8 110.242 187.699H110.211V186.386H108.93V194.511ZM116.75 194.667C118.562 194.667 119.906 193.667 119.906 192.246V192.238C119.906 191.082 119.312 190.433 117.672 190.035L116.383 189.722C115.484 189.503 115.117 189.121 115.117 188.566V188.558C115.117 187.839 115.727 187.363 116.711 187.363C117.719 187.363 118.32 187.886 118.43 188.675L118.438 188.73H119.734L119.727 188.628C119.625 187.269 118.492 186.23 116.711 186.23C114.953 186.23 113.727 187.222 113.727 188.621V188.628C113.727 189.8 114.469 190.511 116 190.878L117.289 191.191C118.211 191.417 118.516 191.746 118.516 192.332V192.339C118.516 193.074 117.859 193.535 116.758 193.535C115.648 193.535 115.047 193.058 114.883 192.246L114.867 192.167H113.508L113.516 192.238C113.68 193.691 114.836 194.667 116.75 194.667ZM127.945 194.667C129.719 194.667 131.047 193.605 131.312 192.261L131.328 192.183H129.992L129.969 192.253C129.734 192.949 129.008 193.464 127.977 193.464C126.531 193.464 125.609 192.488 125.578 190.816H131.43V190.316C131.43 187.878 130.078 186.23 127.859 186.23C125.641 186.23 124.203 187.957 124.203 190.472V190.48C124.203 193.035 125.609 194.667 127.945 194.667ZM127.852 187.433C129.039 187.433 129.914 188.175 130.047 189.753H125.602C125.75 188.238 126.672 187.433 127.852 187.433ZM132.016 194.511H133.523L135.484 191.417H135.516L137.461 194.511H138.969L136.266 190.394L139.008 186.386H137.492L135.562 189.433H135.531L133.578 186.386H132.062L134.781 190.449L132.016 194.511ZM140.148 197.246H141.508V193.152H141.539C142.047 194.089 142.992 194.667 144.141 194.667C146.18 194.667 147.57 193.019 147.57 190.457V190.449C147.57 187.886 146.195 186.23 144.117 186.23C142.953 186.23 142.047 186.816 141.539 187.761H141.508V186.386H140.148V197.246ZM143.852 193.464C142.484 193.464 141.5 192.269 141.5 190.457V190.449C141.5 188.628 142.477 187.433 143.852 187.433C145.289 187.433 146.18 188.582 146.18 190.449V190.457C146.18 192.308 145.289 193.464 143.852 193.464ZM152.289 194.667C154.062 194.667 155.391 193.605 155.656 192.261L155.672 192.183H154.336L154.312 192.253C154.078 192.949 153.352 193.464 152.32 193.464C150.875 193.464 149.953 192.488 149.922 190.816H155.773V190.316C155.773 187.878 154.422 186.23 152.203 186.23C149.984 186.23 148.547 187.957 148.547 190.472V190.48C148.547 193.035 149.953 194.667 152.289 194.667ZM152.195 187.433C153.383 187.433 154.258 188.175 154.391 189.753H149.945C150.094 188.238 151.016 187.433 152.195 187.433ZM157.148 194.511H158.508V189.433C158.508 188.285 159.195 187.527 160.25 187.527C160.578 187.527 160.867 187.566 160.977 187.605V186.285C160.867 186.269 160.664 186.23 160.43 186.23C159.477 186.23 158.727 186.8 158.461 187.699H158.43V186.386H157.148V194.511ZM162.852 185.011C163.328 185.011 163.703 184.628 163.703 184.16C163.703 183.683 163.328 183.308 162.852 183.308C162.383 183.308 162 183.683 162 184.16C162 184.628 162.383 185.011 162.852 185.011ZM162.172 194.511H163.531V186.386H162.172V194.511ZM168.727 194.667C170.5 194.667 171.828 193.605 172.094 192.261L172.109 192.183H170.773L170.75 192.253C170.516 192.949 169.789 193.464 168.758 193.464C167.312 193.464 166.391 192.488 166.359 190.816H172.211V190.316C172.211 187.878 170.859 186.23 168.641 186.23C166.422 186.23 164.984 187.957 164.984 190.472V190.48C164.984 193.035 166.391 194.667 168.727 194.667ZM168.633 187.433C169.82 187.433 170.695 188.175 170.828 189.753H166.383C166.531 188.238 167.453 187.433 168.633 187.433ZM173.586 194.511H174.945V189.73C174.945 188.347 175.781 187.433 177.062 187.433C178.312 187.433 178.93 188.16 178.93 189.48V194.511H180.289V189.238C180.289 187.386 179.258 186.23 177.477 186.23C176.242 186.23 175.414 186.785 174.977 187.542H174.945V186.386H173.586V194.511ZM185.391 194.667C187.227 194.667 188.562 193.472 188.781 191.925L188.789 191.871H187.453L187.438 191.933C187.211 192.839 186.5 193.464 185.391 193.464C183.984 193.464 183.016 192.347 183.016 190.457V190.449C183.016 188.605 183.961 187.433 185.375 187.433C186.57 187.433 187.227 188.152 187.43 188.964L187.445 189.027H188.773L188.766 188.964C188.594 187.574 187.398 186.23 185.375 186.23C183.117 186.23 181.625 187.871 181.625 190.433V190.441C181.625 193.027 183.086 194.667 185.391 194.667ZM193.383 194.667C195.156 194.667 196.484 193.605 196.75 192.261L196.766 192.183H195.43L195.406 192.253C195.172 192.949 194.445 193.464 193.414 193.464C191.969 193.464 191.047 192.488 191.016 190.816H196.867V190.316C196.867 187.878 195.516 186.23 193.297 186.23C191.078 186.23 189.641 187.957 189.641 190.472V190.48C189.641 193.035 191.047 194.667 193.383 194.667ZM193.289 187.433C194.477 187.433 195.352 188.175 195.484 189.753H191.039C191.188 188.238 192.109 187.433 193.289 187.433Z" fill="#606060"/>
</g>
<path d="M72 218.156H86.2222" stroke="#232340" stroke-width="2" stroke-linecap="round" stroke-linejoin="round"/>
<path d="M81.2444 213.178L86.2222 218.156L81.2444 223.133" stroke="#232340" stroke-width="2" stroke-linecap="round" stroke-linejoin="round"/>
<defs>
<filter id="filter0_f_3_395" x="-60.784" y="0.215981" width="479.568" height="376.146" filterUnits="userSpaceOnUse" color-interpolation-filters="sRGB">
<feFlood flood-opacity="0" result="BackgroundImageFix"/>
<feBlend mode="normal" in="SourceGraphic" in2="BackgroundImageFix" result="shape"/>
<feGaussianBlur stdDeviation="46.392" result="effect1_foregroundBlur_3_395"/>
</filter>
<linearGradient id="paint0_linear_3_395" x1="274" y1="144" x2="274" y2="168" gradientUnits="userSpaceOnUse">
<stop stop-color="#3A8FFF"/>
<stop offset="1" stop-color="#0837AE"/>
</linearGradient>
<clipPath id="clip0_3_395">
<rect width="24" height="24" fill="white" transform="translate(274 144)"/>
</clipPath>
<clipPath id="clip1_3_395">
<rect width="187" height="64" fill="white" transform="translate(72 138.511)"/>
</clipPath>
</defs>
</svg>
