<svg width="375" height="377" viewBox="0 0 375 377" fill="none" xmlns="http://www.w3.org/2000/svg">
<g style="mix-blend-mode:multiply" filter="url(#filter0_f_3_369)">
<rect x="32" y="93" width="294" height="190.578" rx="28.4444" fill="#EDEDED"/>
</g>
<rect x="32" y="93" width="311" height="175" rx="24" fill="white"/>
<g clip-path="url(#clip0_3_369)">
<path d="M72.8281 164H76.543L77.8086 159.898H83.75L85.0156 164H88.7422L82.8594 147.09H78.6992L72.8281 164ZM80.75 150.371H80.8203L82.9297 157.25H78.6289L80.75 150.371ZM89.9836 164H93.4055V156.922C93.4055 155.152 94.3898 154.133 96.0773 154.133C96.5695 154.133 97.0383 154.203 97.3195 154.32V151.309C97.0617 151.238 96.7102 151.18 96.3352 151.18C94.8469 151.18 93.7805 152.059 93.4172 153.582H93.3469V151.438H89.9836V164ZM103.518 164.258C104.233 164.258 104.784 164.188 105.17 164.129V161.621C104.959 161.645 104.737 161.68 104.432 161.68C103.401 161.68 102.873 161.281 102.873 160.109V154.016H105.17V151.438H102.873V148.367H99.4164V151.438H97.6703V154.016H99.4164V160.484C99.4164 163.18 100.729 164.258 103.518 164.258ZM111.708 164H118.165C123.239 164 126.227 160.848 126.227 155.48V155.457C126.227 150.102 123.227 147.09 118.165 147.09H111.708V164ZM115.247 161.07V150.008H117.743C120.848 150.008 122.618 151.941 122.618 155.469V155.492C122.618 159.148 120.907 161.07 117.743 161.07H115.247ZM129.801 149.82C130.832 149.82 131.629 149.012 131.629 148.039C131.629 147.066 130.832 146.258 129.801 146.258C128.77 146.258 127.973 147.066 127.973 148.039C127.973 149.012 128.77 149.82 129.801 149.82ZM128.09 164H131.512V151.438H128.09V164ZM133.609 164H137.03V156.922C137.03 155.152 138.015 154.133 139.702 154.133C140.195 154.133 140.663 154.203 140.945 154.32V151.309C140.687 151.238 140.335 151.18 139.96 151.18C138.472 151.18 137.405 152.059 137.042 153.582H136.972V151.438H133.609V164ZM147.448 164.258C151.034 164.258 152.768 162.137 153.155 160.285L153.19 160.156H150.049L150.026 160.227C149.78 160.93 148.924 161.703 147.518 161.703C145.772 161.703 144.682 160.531 144.647 158.527H153.295V157.473C153.295 153.676 150.987 151.18 147.307 151.18C143.627 151.18 141.272 153.734 141.272 157.73V157.742C141.272 161.762 143.604 164.258 147.448 164.258ZM147.366 153.734C148.784 153.734 149.803 154.637 150.014 156.371H144.682C144.905 154.672 145.959 153.734 147.366 153.734ZM160.607 164.258C163.959 164.258 166.127 162.172 166.291 159.43V159.359H163.103L163.091 159.465C162.857 160.73 162.002 161.574 160.63 161.574C158.943 161.574 157.888 160.18 157.888 157.719V157.707C157.888 155.305 158.943 153.863 160.619 153.863C162.037 153.863 162.869 154.777 163.08 155.973L163.103 156.078H166.279V155.996C166.15 153.277 163.982 151.18 160.572 151.18C156.81 151.18 154.408 153.676 154.408 157.695V157.707C154.408 161.762 156.775 164.258 160.607 164.258ZM172.735 164.258C173.45 164.258 174.001 164.188 174.387 164.129V161.621C174.177 161.645 173.954 161.68 173.649 161.68C172.618 161.68 172.091 161.281 172.091 160.109V154.016H174.387V151.438H172.091V148.367H168.634V151.438H166.887V154.016H168.634V160.484C168.634 163.18 169.946 164.258 172.735 164.258ZM181.652 164.258C185.449 164.258 187.875 161.82 187.875 157.719V157.695C187.875 153.629 185.402 151.18 181.641 151.18C177.891 151.18 175.43 153.652 175.43 157.695V157.719C175.43 161.809 177.832 164.258 181.652 164.258ZM181.664 161.574C179.977 161.574 178.91 160.18 178.91 157.719V157.695C178.91 155.27 179.988 153.863 181.641 153.863C183.305 153.863 184.395 155.27 184.395 157.695V157.719C184.395 160.168 183.328 161.574 181.664 161.574ZM189.445 164H192.866V156.922C192.866 155.152 193.851 154.133 195.538 154.133C196.03 154.133 196.499 154.203 196.78 154.32V151.309C196.523 151.238 196.171 151.18 195.796 151.18C194.308 151.18 193.241 152.059 192.878 153.582H192.808V151.438H189.445V164Z" fill="#232340"/>
<path d="M73.4141 195H80.8594V193.75H75.3438V193.719L78.0234 190.969C80.0938 188.852 80.6641 187.922 80.6641 186.688V186.672C80.6641 184.906 79.1719 183.539 77.1328 183.539C75.0312 183.539 73.3438 184.984 73.3438 186.938V186.984H74.7031V186.945C74.7031 185.734 75.75 184.766 77.1562 184.766C78.3828 184.766 79.25 185.594 79.2578 186.742V186.758C79.2578 187.695 78.9062 188.305 77.3828 189.891L73.4141 194.031V195ZM86.5078 197.734C87.9766 197.734 88.6875 197.062 89.2656 195.508L92.4375 186.875H91.0078L88.7578 193.641H88.7266L86.4844 186.875H85.0312L88.0469 195.008L87.8828 195.469C87.5547 196.391 87.0781 196.609 86.2188 196.609C86.0547 196.609 85.8984 196.586 85.7812 196.562V197.672C85.9531 197.703 86.2422 197.734 86.5078 197.734ZM96.5391 195.156C98.3125 195.156 99.6406 194.094 99.9062 192.75L99.9219 192.672H98.5859L98.5625 192.742C98.3281 193.438 97.6016 193.953 96.5703 193.953C95.125 193.953 94.2031 192.977 94.1719 191.305H100.023V190.805C100.023 188.367 98.6719 186.719 96.4531 186.719C94.2344 186.719 92.7969 188.445 92.7969 190.961V190.969C92.7969 193.523 94.2031 195.156 96.5391 195.156ZM96.4453 187.922C97.6328 187.922 98.5078 188.664 98.6406 190.242H94.1953C94.3438 188.727 95.2656 187.922 96.4453 187.922ZM103.773 195.156C104.859 195.156 105.836 194.57 106.312 193.68H106.344V195H107.703V189.383C107.703 187.758 106.5 186.719 104.578 186.719C102.664 186.719 101.5 187.797 101.383 189.133L101.375 189.219H102.688L102.703 189.148C102.859 188.422 103.516 187.922 104.562 187.922C105.695 187.922 106.344 188.523 106.344 189.516V190.195L104.016 190.328C102.148 190.438 101.07 191.305 101.07 192.688V192.703C101.07 194.18 102.156 195.156 103.773 195.156ZM102.461 192.703V192.688C102.461 191.93 103.086 191.445 104.172 191.383L106.344 191.25V191.914C106.344 193.094 105.359 193.977 104.078 193.977C103.102 193.977 102.461 193.484 102.461 192.703ZM109.43 195H110.789V189.922C110.789 188.773 111.477 188.016 112.531 188.016C112.859 188.016 113.148 188.055 113.258 188.094V186.773C113.148 186.758 112.945 186.719 112.711 186.719C111.758 186.719 111.008 187.289 110.742 188.188H110.711V186.875H109.43V195ZM117.25 195.156C119.062 195.156 120.406 194.156 120.406 192.734V192.727C120.406 191.57 119.812 190.922 118.172 190.523L116.883 190.211C115.984 189.992 115.617 189.609 115.617 189.055V189.047C115.617 188.328 116.227 187.852 117.211 187.852C118.219 187.852 118.82 188.375 118.93 189.164L118.938 189.219H120.234L120.227 189.117C120.125 187.758 118.992 186.719 117.211 186.719C115.453 186.719 114.227 187.711 114.227 189.109V189.117C114.227 190.289 114.969 191 116.5 191.367L117.789 191.68C118.711 191.906 119.016 192.234 119.016 192.82V192.828C119.016 193.562 118.359 194.023 117.258 194.023C116.148 194.023 115.547 193.547 115.383 192.734L115.367 192.656H114.008L114.016 192.727C114.18 194.18 115.336 195.156 117.25 195.156ZM128.445 195.156C130.219 195.156 131.547 194.094 131.812 192.75L131.828 192.672H130.492L130.469 192.742C130.234 193.438 129.508 193.953 128.477 193.953C127.031 193.953 126.109 192.977 126.078 191.305H131.93V190.805C131.93 188.367 130.578 186.719 128.359 186.719C126.141 186.719 124.703 188.445 124.703 190.961V190.969C124.703 193.523 126.109 195.156 128.445 195.156ZM128.352 187.922C129.539 187.922 130.414 188.664 130.547 190.242H126.102C126.25 188.727 127.172 187.922 128.352 187.922ZM132.516 195H134.023L135.984 191.906H136.016L137.961 195H139.469L136.766 190.883L139.508 186.875H137.992L136.062 189.922H136.031L134.078 186.875H132.562L135.281 190.938L132.516 195ZM140.648 197.734H142.008V193.641H142.039C142.547 194.578 143.492 195.156 144.641 195.156C146.68 195.156 148.07 193.508 148.07 190.945V190.938C148.07 188.375 146.695 186.719 144.617 186.719C143.453 186.719 142.547 187.305 142.039 188.25H142.008V186.875H140.648V197.734ZM144.352 193.953C142.984 193.953 142 192.758 142 190.945V190.938C142 189.117 142.977 187.922 144.352 187.922C145.789 187.922 146.68 189.07 146.68 190.938V190.945C146.68 192.797 145.789 193.953 144.352 193.953ZM152.789 195.156C154.562 195.156 155.891 194.094 156.156 192.75L156.172 192.672H154.836L154.812 192.742C154.578 193.438 153.852 193.953 152.82 193.953C151.375 193.953 150.453 192.977 150.422 191.305H156.273V190.805C156.273 188.367 154.922 186.719 152.703 186.719C150.484 186.719 149.047 188.445 149.047 190.961V190.969C149.047 193.523 150.453 195.156 152.789 195.156ZM152.695 187.922C153.883 187.922 154.758 188.664 154.891 190.242H150.445C150.594 188.727 151.516 187.922 152.695 187.922ZM157.648 195H159.008V189.922C159.008 188.773 159.695 188.016 160.75 188.016C161.078 188.016 161.367 188.055 161.477 188.094V186.773C161.367 186.758 161.164 186.719 160.93 186.719C159.977 186.719 159.227 187.289 158.961 188.188H158.93V186.875H157.648V195ZM163.352 185.5C163.828 185.5 164.203 185.117 164.203 184.648C164.203 184.172 163.828 183.797 163.352 183.797C162.883 183.797 162.5 184.172 162.5 184.648C162.5 185.117 162.883 185.5 163.352 185.5ZM162.672 195H164.031V186.875H162.672V195ZM169.227 195.156C171 195.156 172.328 194.094 172.594 192.75L172.609 192.672H171.273L171.25 192.742C171.016 193.438 170.289 193.953 169.258 193.953C167.812 193.953 166.891 192.977 166.859 191.305H172.711V190.805C172.711 188.367 171.359 186.719 169.141 186.719C166.922 186.719 165.484 188.445 165.484 190.961V190.969C165.484 193.523 166.891 195.156 169.227 195.156ZM169.133 187.922C170.32 187.922 171.195 188.664 171.328 190.242H166.883C167.031 188.727 167.953 187.922 169.133 187.922ZM174.086 195H175.445V190.219C175.445 188.836 176.281 187.922 177.562 187.922C178.812 187.922 179.43 188.648 179.43 189.969V195H180.789V189.727C180.789 187.875 179.758 186.719 177.977 186.719C176.742 186.719 175.914 187.273 175.477 188.031H175.445V186.875H174.086V195ZM185.891 195.156C187.727 195.156 189.062 193.961 189.281 192.414L189.289 192.359H187.953L187.938 192.422C187.711 193.328 187 193.953 185.891 193.953C184.484 193.953 183.516 192.836 183.516 190.945V190.938C183.516 189.094 184.461 187.922 185.875 187.922C187.07 187.922 187.727 188.641 187.93 189.453L187.945 189.516H189.273L189.266 189.453C189.094 188.062 187.898 186.719 185.875 186.719C183.617 186.719 182.125 188.359 182.125 190.922V190.93C182.125 193.516 183.586 195.156 185.891 195.156ZM193.883 195.156C195.656 195.156 196.984 194.094 197.25 192.75L197.266 192.672H195.93L195.906 192.742C195.672 193.438 194.945 193.953 193.914 193.953C192.469 193.953 191.547 192.977 191.516 191.305H197.367V190.805C197.367 188.367 196.016 186.719 193.797 186.719C191.578 186.719 190.141 188.445 190.141 190.961V190.969C190.141 193.523 191.547 195.156 193.883 195.156ZM193.789 187.922C194.977 187.922 195.852 188.664 195.984 190.242H191.539C191.688 188.727 192.609 187.922 193.789 187.922Z" fill="#606060"/>
</g>
<path d="M72 218.522H86.2222" stroke="#232340" stroke-width="2" stroke-linecap="round" stroke-linejoin="round"/>
<path d="M81.2444 213.544L86.2222 218.522L81.2444 223.5" stroke="#232340" stroke-width="2" stroke-linecap="round" stroke-linejoin="round"/>
<defs>
<filter id="filter0_f_3_369" x="-60.784" y="0.215981" width="479.568" height="376.146" filterUnits="userSpaceOnUse" color-interpolation-filters="sRGB">
<feFlood flood-opacity="0" result="BackgroundImageFix"/>
<feBlend mode="normal" in="SourceGraphic" in2="BackgroundImageFix" result="shape"/>
<feGaussianBlur stdDeviation="46.392" result="effect1_foregroundBlur_3_369"/>
</filter>
<clipPath id="clip0_3_369">
<rect width="126" height="64" fill="white" transform="translate(72.5 139)"/>
</clipPath>
</defs>
</svg>
