<svg width="375" height="377" viewBox="0 0 375 377" fill="none" xmlns="http://www.w3.org/2000/svg">
<g style="mix-blend-mode:multiply" filter="url(#filter0_f_3_380)">
<rect x="32" y="93" width="220.855" height="190.578" rx="28.4444" fill="#EDEDED"/>
</g>
<rect x="32" y="93" width="311" height="175" rx="24" fill="#232340"/>
<g clip-path="url(#clip0_3_380)">
<path d="M76.6778 160.511H80.7667L86.1333 144.478H82.4111L78.7556 157.078H78.6889L75.0222 144.478H71.3111L76.6778 160.511ZM88.6556 147.067C89.6333 147.067 90.3889 146.3 90.3889 145.378C90.3889 144.456 89.6333 143.689 88.6556 143.689C87.6778 143.689 86.9222 144.456 86.9222 145.378C86.9222 146.3 87.6778 147.067 88.6556 147.067ZM87.0333 160.511H90.2778V148.6H87.0333V160.511ZM97 160.756C100.067 160.756 102.211 159.222 102.211 156.889V156.878C102.211 155.122 101.189 154.145 98.7 153.622L96.6778 153.189C95.4778 152.933 95.0667 152.533 95.0667 151.922V151.911C95.0667 151.145 95.7667 150.645 96.8889 150.645C98.0889 150.645 98.7889 151.289 98.9 152.145L98.9111 152.233H101.9V152.122C101.822 150.033 100.056 148.356 96.8889 148.356C93.8556 148.356 91.9 149.822 91.9 152.089V152.1C91.9 153.878 93.0667 155.033 95.3778 155.522L97.4 155.945C98.5667 156.2 98.9667 156.567 98.9667 157.2V157.211C98.9667 157.978 98.2222 158.456 97 158.456C95.7 158.456 95 157.911 94.7889 156.978L94.7667 156.878H91.6L91.6111 156.978C91.8667 159.233 93.7 160.756 97 160.756ZM107.511 160.756C109.311 160.756 110.533 159.911 111.144 158.545H111.211V160.511H114.456V148.6H111.211V155.445C111.211 157 110.289 158.067 108.833 158.067C107.378 158.067 106.644 157.167 106.644 155.611V148.6H103.4V156.289C103.4 159.078 104.889 160.756 107.511 160.756ZM119.756 160.7C121.322 160.7 122.589 159.956 123.267 158.733H123.333V160.511H126.578V152.345C126.578 149.945 124.589 148.356 121.511 148.356C118.367 148.356 116.478 149.933 116.3 152.133L116.289 152.267H119.256L119.278 152.167C119.433 151.4 120.167 150.833 121.378 150.833C122.644 150.833 123.333 151.489 123.333 152.545V153.278L120.389 153.456C117.433 153.645 115.756 154.911 115.756 157.078V157.1C115.756 159.2 117.367 160.7 119.756 160.7ZM118.967 156.933V156.911C118.967 156.067 119.622 155.533 120.878 155.456L123.333 155.3V156.156C123.333 157.4 122.267 158.333 120.811 158.333C119.689 158.333 118.967 157.811 118.967 156.933ZM128.4 160.511H131.644V144.478H128.4V160.511ZM137.911 160.511H144.033C148.844 160.511 151.678 157.522 151.678 152.433V152.411C151.678 147.333 148.833 144.478 144.033 144.478H137.911V160.511ZM141.267 157.733V147.245H143.633C146.578 147.245 148.256 149.078 148.256 152.422V152.445C148.256 155.911 146.633 157.733 143.633 157.733H141.267ZM158.633 160.756C162.033 160.756 163.678 158.745 164.044 156.989L164.078 156.867H161.1L161.078 156.933C160.844 157.6 160.033 158.333 158.7 158.333C157.044 158.333 156.011 157.222 155.978 155.322H164.178V154.322C164.178 150.722 161.989 148.356 158.5 148.356C155.011 148.356 152.778 150.778 152.778 154.567V154.578C152.778 158.389 154.989 160.756 158.633 160.756ZM158.556 150.778C159.9 150.778 160.867 151.633 161.067 153.278H156.011C156.222 151.667 157.222 150.778 158.556 150.778ZM170.4 160.756C173.467 160.756 175.611 159.222 175.611 156.889V156.878C175.611 155.122 174.589 154.145 172.1 153.622L170.078 153.189C168.878 152.933 168.467 152.533 168.467 151.922V151.911C168.467 151.145 169.167 150.645 170.289 150.645C171.489 150.645 172.189 151.289 172.3 152.145L172.311 152.233H175.3V152.122C175.222 150.033 173.456 148.356 170.289 148.356C167.256 148.356 165.3 149.822 165.3 152.089V152.1C165.3 153.878 166.467 155.033 168.778 155.522L170.8 155.945C171.967 156.2 172.367 156.567 172.367 157.2V157.211C172.367 157.978 171.622 158.456 170.4 158.456C169.1 158.456 168.4 157.911 168.189 156.978L168.167 156.878H165L165.011 156.978C165.267 159.233 167.1 160.756 170.4 160.756ZM178.544 147.067C179.522 147.067 180.278 146.3 180.278 145.378C180.278 144.456 179.522 143.689 178.544 143.689C177.567 143.689 176.811 144.456 176.811 145.378C176.811 146.3 177.567 147.067 178.544 147.067ZM176.922 160.511H180.167V148.6H176.922V160.511ZM187.556 164.645C191.133 164.645 193.367 162.833 193.367 160.178V148.6H190.122V150.633H190.056C189.411 149.245 188.111 148.356 186.433 148.356C183.422 148.356 181.556 150.611 181.556 154.411V154.422C181.556 158.122 183.4 160.345 186.378 160.345C188.1 160.345 189.433 159.556 190.056 158.311H190.122V160.133C190.122 161.467 189.233 162.333 187.556 162.333C186.2 162.333 185.333 161.822 185.078 161.233L185.044 161.156H181.889L181.9 161.256C182.211 163.167 184.278 164.645 187.556 164.645ZM187.5 157.967C185.878 157.967 184.856 156.645 184.856 154.5V154.489C184.856 152.356 185.889 151.045 187.5 151.045C189.078 151.045 190.133 152.367 190.133 154.489V154.5C190.133 156.633 189.089 157.967 187.5 157.967ZM195.144 160.511H198.389V153.667C198.389 152.111 199.311 151.045 200.767 151.045C202.222 151.045 202.956 151.933 202.956 153.489V160.511H206.2V152.822C206.2 150.033 204.711 148.356 202.089 148.356C200.289 148.356 199.067 149.189 198.456 150.556H198.389V148.6H195.144V160.511ZM213.322 160.756C216.722 160.756 218.367 158.745 218.733 156.989L218.767 156.867H215.789L215.767 156.933C215.533 157.6 214.722 158.333 213.389 158.333C211.733 158.333 210.7 157.222 210.667 155.322H218.867V154.322C218.867 150.722 216.678 148.356 213.189 148.356C209.7 148.356 207.467 150.778 207.467 154.567V154.578C207.467 158.389 209.678 160.756 213.322 160.756ZM213.244 150.778C214.589 150.778 215.556 151.633 215.756 153.278H210.7C210.911 151.667 211.911 150.778 213.244 150.778ZM220.189 160.511H223.433V153.8C223.433 152.122 224.367 151.156 225.967 151.156C226.433 151.156 226.878 151.222 227.144 151.333V148.478C226.9 148.411 226.567 148.356 226.211 148.356C224.8 148.356 223.789 149.189 223.444 150.633H223.378V148.6H220.189V160.511Z" fill="white"/>
<path d="M71.7313 187.511H77.6875V186.511H73.275V186.486L75.4188 184.286C77.075 182.592 77.5313 181.849 77.5313 180.861V180.849C77.5313 179.436 76.3375 178.342 74.7063 178.342C73.025 178.342 71.675 179.499 71.675 181.061V181.099H72.7625V181.067C72.7625 180.099 73.6 179.324 74.725 179.324C75.7063 179.324 76.4 179.986 76.4063 180.905V180.917C76.4063 181.667 76.125 182.155 74.9063 183.424L71.7313 186.736V187.511ZM82.2063 189.699C83.3813 189.699 83.95 189.161 84.4125 187.917L86.95 181.011H85.8063L84.0063 186.424H83.9813L82.1875 181.011H81.025L83.4375 187.517L83.3063 187.886C83.0438 188.624 82.6625 188.799 81.975 188.799C81.8438 188.799 81.7188 188.78 81.625 188.761V189.649C81.7625 189.674 81.9938 189.699 82.2063 189.699ZM90.2313 187.636C91.65 187.636 92.7125 186.786 92.925 185.711L92.9375 185.649H91.8688L91.85 185.705C91.6625 186.261 91.0813 186.674 90.2563 186.674C89.1 186.674 88.3625 185.892 88.3375 184.555H93.0188V184.155C93.0188 182.205 91.9375 180.886 90.1625 180.886C88.3875 180.886 87.2375 182.267 87.2375 184.28V184.286C87.2375 186.33 88.3625 187.636 90.2313 187.636ZM90.1563 181.849C91.1063 181.849 91.8063 182.442 91.9125 183.705H88.3563C88.475 182.492 89.2125 181.849 90.1563 181.849ZM96.0188 187.636C96.8875 187.636 97.6688 187.167 98.05 186.455H98.075V187.511H99.1625V183.017C99.1625 181.717 98.2 180.886 96.6625 180.886C95.1313 180.886 94.2 181.749 94.1063 182.817L94.1 182.886H95.15L95.1625 182.83C95.2875 182.249 95.8125 181.849 96.65 181.849C97.5563 181.849 98.075 182.33 98.075 183.124V183.667L96.2125 183.774C94.7188 183.861 93.8563 184.555 93.8563 185.661V185.674C93.8563 186.855 94.725 187.636 96.0188 187.636ZM94.9688 185.674V185.661C94.9688 185.055 95.4688 184.667 96.3375 184.617L98.075 184.511V185.042C98.075 185.986 97.2875 186.692 96.2625 186.692C95.4813 186.692 94.9688 186.299 94.9688 185.674ZM100.544 187.511H101.631V183.449C101.631 182.53 102.181 181.924 103.025 181.924C103.287 181.924 103.519 181.955 103.606 181.986V180.93C103.519 180.917 103.356 180.886 103.169 180.886C102.406 180.886 101.806 181.342 101.594 182.061H101.569V181.011H100.544V187.511ZM106.8 187.636C108.25 187.636 109.325 186.836 109.325 185.699V185.692C109.325 184.767 108.85 184.249 107.537 183.93L106.506 183.68C105.787 183.505 105.494 183.199 105.494 182.755V182.749C105.494 182.174 105.981 181.792 106.769 181.792C107.575 181.792 108.056 182.211 108.144 182.842L108.15 182.886H109.187L109.181 182.805C109.1 181.717 108.194 180.886 106.769 180.886C105.362 180.886 104.381 181.68 104.381 182.799V182.805C104.381 183.742 104.975 184.311 106.2 184.605L107.231 184.855C107.969 185.036 108.212 185.299 108.212 185.767V185.774C108.212 186.361 107.687 186.73 106.806 186.73C105.919 186.73 105.437 186.349 105.306 185.699L105.294 185.636H104.206L104.212 185.692C104.344 186.855 105.269 187.636 106.8 187.636ZM115.756 187.636C117.175 187.636 118.238 186.786 118.45 185.711L118.463 185.649H117.394L117.375 185.705C117.188 186.261 116.606 186.674 115.781 186.674C114.625 186.674 113.888 185.892 113.863 184.555H118.544V184.155C118.544 182.205 117.463 180.886 115.688 180.886C113.913 180.886 112.763 182.267 112.763 184.28V184.286C112.763 186.33 113.888 187.636 115.756 187.636ZM115.681 181.849C116.631 181.849 117.331 182.442 117.438 183.705H113.881C114 182.492 114.738 181.849 115.681 181.849ZM119.013 187.511H120.219L121.788 185.036H121.813L123.369 187.511H124.575L122.413 184.217L124.606 181.011H123.394L121.85 183.449H121.825L120.263 181.011H119.05L121.225 184.261L119.013 187.511ZM125.519 189.699H126.606V186.424H126.631C127.038 187.174 127.794 187.636 128.713 187.636C130.344 187.636 131.456 186.317 131.456 184.267V184.261C131.456 182.211 130.356 180.886 128.694 180.886C127.763 180.886 127.038 181.355 126.631 182.111H126.606V181.011H125.519V189.699ZM128.481 186.674C127.388 186.674 126.6 185.717 126.6 184.267V184.261C126.6 182.805 127.381 181.849 128.481 181.849C129.631 181.849 130.344 182.767 130.344 184.261V184.267C130.344 185.749 129.631 186.674 128.481 186.674ZM135.231 187.636C136.65 187.636 137.712 186.786 137.925 185.711L137.937 185.649H136.869L136.85 185.705C136.662 186.261 136.081 186.674 135.256 186.674C134.1 186.674 133.362 185.892 133.337 184.555H138.019V184.155C138.019 182.205 136.937 180.886 135.162 180.886C133.387 180.886 132.237 182.267 132.237 184.28V184.286C132.237 186.33 133.362 187.636 135.231 187.636ZM135.156 181.849C136.106 181.849 136.806 182.442 136.912 183.705H133.356C133.475 182.492 134.212 181.849 135.156 181.849ZM139.119 187.511H140.206V183.449C140.206 182.53 140.756 181.924 141.6 181.924C141.862 181.924 142.094 181.955 142.181 181.986V180.93C142.094 180.917 141.931 180.886 141.744 180.886C140.981 180.886 140.381 181.342 140.169 182.061H140.144V181.011H139.119V187.511ZM143.681 179.911C144.063 179.911 144.363 179.605 144.363 179.23C144.363 178.849 144.063 178.549 143.681 178.549C143.306 178.549 143 178.849 143 179.23C143 179.605 143.306 179.911 143.681 179.911ZM143.138 187.511H144.225V181.011H143.138V187.511ZM148.381 187.636C149.8 187.636 150.863 186.786 151.075 185.711L151.088 185.649H150.019L150 185.705C149.813 186.261 149.231 186.674 148.406 186.674C147.25 186.674 146.513 185.892 146.488 184.555H151.169V184.155C151.169 182.205 150.088 180.886 148.313 180.886C146.538 180.886 145.388 182.267 145.388 184.28V184.286C145.388 186.33 146.513 187.636 148.381 187.636ZM148.306 181.849C149.256 181.849 149.956 182.442 150.063 183.705H146.506C146.625 182.492 147.363 181.849 148.306 181.849ZM152.269 187.511H153.356V183.686C153.356 182.58 154.025 181.849 155.05 181.849C156.05 181.849 156.544 182.43 156.544 183.486V187.511H157.631V183.292C157.631 181.811 156.806 180.886 155.381 180.886C154.394 180.886 153.731 181.33 153.381 181.936H153.356V181.011H152.269V187.511ZM161.713 187.636C163.181 187.636 164.25 186.68 164.425 185.442L164.431 185.399H163.363L163.35 185.449C163.169 186.174 162.6 186.674 161.713 186.674C160.588 186.674 159.813 185.78 159.813 184.267V184.261C159.813 182.786 160.569 181.849 161.7 181.849C162.656 181.849 163.181 182.424 163.344 183.074L163.356 183.124H164.419L164.413 183.074C164.275 181.961 163.319 180.886 161.7 180.886C159.894 180.886 158.7 182.199 158.7 184.249V184.255C158.7 186.324 159.869 187.636 161.713 187.636ZM168.106 187.636C169.525 187.636 170.587 186.786 170.8 185.711L170.812 185.649H169.744L169.725 185.705C169.537 186.261 168.956 186.674 168.131 186.674C166.975 186.674 166.237 185.892 166.212 184.555H170.894V184.155C170.894 182.205 169.812 180.886 168.037 180.886C166.262 180.886 165.112 182.267 165.112 184.28V184.286C165.112 186.33 166.237 187.636 168.106 187.636ZM168.031 181.849C168.981 181.849 169.681 182.442 169.787 183.705H166.231C166.35 182.492 167.087 181.849 168.031 181.849Z" fill="#8B8B8B"/>
</g>
<path d="M71 218.156H85.2222" stroke="white" stroke-width="1.42222" stroke-linecap="round" stroke-linejoin="round"/>
<path d="M80.2444 213.178L85.2222 218.156L80.2444 223.133" stroke="white" stroke-width="1.42222" stroke-linecap="round" stroke-linejoin="round"/>
<defs>
<filter id="filter0_f_3_380" x="-60.784" y="0.215981" width="406.423" height="376.146" filterUnits="userSpaceOnUse" color-interpolation-filters="sRGB">
<feFlood flood-opacity="0" result="BackgroundImageFix"/>
<feBlend mode="normal" in="SourceGraphic" in2="BackgroundImageFix" result="shape"/>
<feGaussianBlur stdDeviation="46.392" result="effect1_foregroundBlur_3_380"/>
</filter>
<clipPath id="clip0_3_380">
<rect width="156" height="56" fill="white" transform="translate(71 138.511)"/>
</clipPath>
</defs>
</svg>
